<svg width="66" height="54" viewBox="0 0 66 54" fill="none" xmlns="http://www.w3.org/2000/svg">
<path d="M42.9781 39.7447V7.72722C42.9781 6.47348 42.48 5.2711 41.5935 4.38457C40.707 3.49804 39.5046 3 38.2509 3H7.72722C6.47348 3 5.2711 3.49804 4.38457 4.38457C3.49804 5.2711 3 6.47348 3 7.72722V39.0498C3 40.3035 3.49804 41.5059 4.38457 42.3924C5.2711 43.2789 6.47348 43.777 7.72722 43.777H11.4475M62.544 25.3692H42.9828" stroke="url(#paint0_linear_914_2350)" stroke-width="6" stroke-linecap="round" stroke-linejoin="round"/>
<path d="M54.6967 43.777H57.9206C58.5446 43.777 59.1624 43.6535 59.7384 43.4136C60.3144 43.1736 60.8373 42.8221 61.2767 42.3791C61.7162 41.9361 62.0636 41.4105 62.2989 40.8326C62.5342 40.2547 62.6528 39.6359 62.6478 39.012L62.5344 23.9794L55.9541 10.5068C55.566 9.71018 54.9617 9.03867 54.2103 8.56892C53.4588 8.09918 52.5905 7.85011 51.7043 7.85013H42.9117M11.5088 43.9188C11.5088 45.669 12.2041 47.3476 13.4416 48.5851C14.6792 49.8227 16.3578 50.518 18.108 50.518C19.8582 50.518 21.5367 49.8227 22.7743 48.5851C24.0119 47.3476 24.7072 45.669 24.7072 43.9188C24.7072 42.1686 24.0119 40.4901 22.7743 39.2525C21.5367 38.0149 19.8582 37.3196 18.108 37.3196C16.3578 37.3196 14.6792 38.0149 13.4416 39.2525C12.2041 40.4901 11.5088 42.1686 11.5088 43.9188Z" stroke="url(#paint1_linear_914_2350)" stroke-width="6" stroke-linecap="round" stroke-linejoin="round"/>
<path d="M15.9004 21.9089H30.0773M22.9865 14.8228V28.995M41.4652 43.777H24.7072M41.4652 43.9188C41.4652 45.669 42.1605 47.3475 43.3981 48.5851C44.6356 49.8227 46.3142 50.518 48.0644 50.518C49.8146 50.518 51.4931 49.8227 52.7307 48.5851C53.9683 47.3475 54.6636 45.669 54.6636 43.9188C54.6636 42.1686 53.9683 40.49 52.7307 39.2524C51.4931 38.0149 49.8146 37.3196 48.0644 37.3196C46.3142 37.3196 44.6356 38.0149 43.3981 39.2524C42.1605 40.49 41.4652 42.1686 41.4652 43.9188Z" stroke="url(#paint2_linear_914_2350)" stroke-width="6" stroke-linecap="round" stroke-linejoin="round"/>
<defs>
<linearGradient id="paint0_linear_914_2350" x1="3" y1="43.777" x2="68.4535" y2="28.7643" gradientUnits="userSpaceOnUse">
<stop stop-color="#ED6A01"/>
<stop offset="1" stop-color="#FFCC00"/>
</linearGradient>
<linearGradient id="paint1_linear_914_2350" x1="11.5088" y1="50.518" x2="68.6553" y2="39.7596" gradientUnits="userSpaceOnUse">
<stop stop-color="#ED6A01"/>
<stop offset="1" stop-color="#FFCC00"/>
</linearGradient>
<linearGradient id="paint2_linear_914_2350" x1="15.9004" y1="50.518" x2="59.4842" y2="43.0837" gradientUnits="userSpaceOnUse">
<stop stop-color="#ED6A01"/>
<stop offset="1" stop-color="#FFCC00"/>
</linearGradient>
</defs>
</svg>
