<svg width="70" height="58" viewBox="0 0 70 58" fill="none" xmlns="http://www.w3.org/2000/svg">
<path d="M61.488 22.7773L59.9893 19.0307L57.332 12.3867C55.0507 6.684 49.6093 3 43.4667 3H26.5333C20.392 3 14.9493 6.684 12.668 12.3867L10.0107 19.0307L8.512 22.7773C5.296 24 3 27.088 3 30.7333V37.1333C3 39.2827 3.82133 41.2227 5.13333 42.724V49.9333C5.13333 52.2893 7.044 54.2 9.4 54.2H13.6667C16.0227 54.2 17.9333 52.2893 17.9333 49.9333V45.6667H52.0667V49.9333C52.0667 52.2893 53.9773 54.2 56.3333 54.2H60.6C62.956 54.2 64.8667 52.2893 64.8667 49.9333V42.724C66.1787 41.224 67 39.284 67 37.1333V30.7333C67 27.088 64.704 24 61.488 22.7773ZM20.5907 15.556C21.5627 13.1267 23.916 11.5333 26.5333 11.5333H43.4667C46.084 11.5333 48.4373 13.1267 49.4093 15.556L52.0667 22.2H17.9333L20.5907 15.556Z" stroke="url(#paint0_linear_957_5711)" stroke-width="6"/>
<defs>
<linearGradient id="paint0_linear_957_5711" x1="3" y1="54.2" x2="74.3039" y2="40.2" gradientUnits="userSpaceOnUse">
<stop stop-color="#ED6A01"/>
<stop offset="1" stop-color="#FFCC00"/>
</linearGradient>
</defs>
</svg>
