<svg width="64" height="64" viewBox="0 0 64 64" fill="none" xmlns="http://www.w3.org/2000/svg">
<path d="M32 0C49.6736 0 64 14.3264 64 32C64 49.6736 49.6736 64 32 64C14.3264 64 0 49.6736 0 32C0 14.3264 14.3264 0 32 0ZM32 6.4C25.2105 6.4 18.699 9.09714 13.8981 13.8981C9.09714 18.699 6.4 25.2105 6.4 32C6.4 38.7895 9.09714 45.301 13.8981 50.1019C18.699 54.9029 25.2105 57.6 32 57.6C38.7895 57.6 45.301 54.9029 50.1019 50.1019C54.9029 45.301 57.6 38.7895 57.6 32C57.6 25.2105 54.9029 18.699 50.1019 13.8981C45.301 9.09714 38.7895 6.4 32 6.4ZM32 12.8C32.7838 12.8001 33.5403 13.0879 34.126 13.6087C34.7117 14.1295 35.0859 14.8472 35.1776 15.6256L35.2 16V30.6752L43.8624 39.3376C44.4363 39.9135 44.7695 40.6862 44.7943 41.4988C44.8191 42.3115 44.5337 43.1031 43.996 43.7129C43.4583 44.3227 42.7086 44.705 41.8993 44.7821C41.0899 44.8592 40.2816 44.6253 39.6384 44.128L39.3376 43.8624L29.7376 34.2624C29.2403 33.7646 28.9208 33.1168 28.8288 32.4192L28.8 32V16C28.8 15.1513 29.1371 14.3374 29.7373 13.7373C30.3374 13.1371 31.1513 12.8 32 12.8Z" fill="url(#paint0_linear_914_1019)"/>
<defs>
<linearGradient id="paint0_linear_914_1019" x1="0" y1="64" x2="72.2697" y2="52.6483" gradientUnits="userSpaceOnUse">
<stop stop-color="#ED6A01"/>
<stop offset="1" stop-color="#FFCC00"/>
</linearGradient>
</defs>
</svg>
