<svg width="75" height="71" viewBox="0 0 75 71" fill="none" xmlns="http://www.w3.org/2000/svg">
<path d="M0 7.47368C0 5.49154 0.790176 3.59058 2.1967 2.18899C3.60322 0.787403 5.51088 0 7.5 0H67.5C69.4891 0 71.3968 0.787403 72.8033 2.18899C74.2098 3.59058 75 5.49154 75 7.47368V48.5789C75 50.5611 74.2098 52.4621 72.8033 53.8636C71.3968 55.2652 69.4891 56.0526 67.5 56.0526H41.25V63.5263H52.5C53.4946 63.5263 54.4484 63.92 55.1517 64.6208C55.8549 65.3216 56.25 66.2721 56.25 67.2632C56.25 68.2542 55.8549 69.2047 55.1517 69.9055C54.4484 70.6063 53.4946 71 52.5 71H22.5C21.5054 71 20.5516 70.6063 19.8484 69.9055C19.1451 69.2047 18.75 68.2542 18.75 67.2632C18.75 66.2721 19.1451 65.3216 19.8484 64.6208C20.5516 63.92 21.5054 63.5263 22.5 63.5263H33.75V56.0526H7.5C5.51088 56.0526 3.60322 55.2652 2.1967 53.8636C0.790176 52.4621 0 50.5611 0 48.5789V7.47368ZM67.5 48.5789V7.47368H7.5V48.5789H67.5Z" fill="url(#paint0_linear_914_1439)"/>
<defs>
<linearGradient id="paint0_linear_914_1439" x1="0" y1="71" x2="84.4554" y2="56.9869" gradientUnits="userSpaceOnUse">
<stop stop-color="#ED6A01"/>
<stop offset="1" stop-color="#FFCC00"/>
</linearGradient>
</defs>
</svg>
