<svg width="73" height="64" viewBox="0 0 73 64" fill="none" xmlns="http://www.w3.org/2000/svg">
<path d="M68.061 0H4.5374C3.33401 0 2.1799 0.478046 1.32897 1.32897C0.478046 2.1799 0 3.33401 0 4.5374V49.9114C0 51.1148 0.478046 52.2689 1.32897 53.1198C2.1799 53.9707 3.33401 54.4488 4.5374 54.4488H36.6666C37.8697 54.4488 39.0088 53.9073 39.7684 52.9745L39.861 52.8607C40.8185 51.5121 39.846 49.6461 38.1921 49.6585L4.5374 49.9114V4.5374H68.061V22.9735C68.061 23.587 68.3767 24.1544 68.8738 24.5139C70.2599 25.5164 72.5984 24.6123 72.5984 22.9016V4.5374C72.5984 3.33401 72.1203 2.1799 71.2694 1.32897C70.4185 0.478046 69.2644 0 68.061 0Z" fill="url(#paint0_linear_914_1011)"/>
<path d="M11.3438 15.4271C11.3438 14.4248 12.1563 13.6122 13.1587 13.6122H48.0967C49.099 13.6122 49.9116 14.4248 49.9116 15.4271C49.9116 16.4295 49.099 17.2421 48.0967 17.2421H13.1587C12.1563 17.2421 11.3438 16.4295 11.3438 15.4271Z" fill="url(#paint1_linear_914_1011)"/>
<path d="M11.3438 24.502C11.3438 23.4996 12.1563 22.687 13.1587 22.687H34.4845C35.4869 22.687 36.2994 23.4996 36.2994 24.502C36.2994 25.5043 35.4869 26.3169 34.4845 26.3169H13.1587C12.1563 26.3169 11.3438 25.5043 11.3438 24.502Z" fill="url(#paint2_linear_914_1011)"/>
<path d="M11.3438 40.3828C11.3438 39.3805 12.1563 38.5679 13.1587 38.5679H32.2158C33.2182 38.5679 34.0307 39.3805 34.0307 40.3828C34.0307 41.3852 33.2182 42.1978 32.2158 42.1978H13.1587C12.1563 42.1978 11.3438 41.3852 11.3438 40.3828Z" fill="url(#paint3_linear_914_1011)"/>
<path d="M57.7623 25.4775C54.8591 25.4545 52.0165 26.3077 49.6059 27.9258C47.1954 29.5439 45.329 31.8516 44.2508 34.5472C43.1725 37.2428 42.9325 40.201 43.5622 43.0352C44.1918 45.8694 45.6618 48.4477 47.78 50.4332L44.4557 54.4943C43.778 55.3222 43.5312 56.4217 43.79 57.4599C44.4638 60.1624 47.9295 60.9426 49.6964 58.7895L53.724 53.8816C56.3524 54.6588 59.1495 54.6588 61.7779 53.8816L65.8054 58.7895C67.5723 60.9426 71.038 60.1624 71.7118 57.4599C71.9706 56.4217 71.7238 55.3222 71.0461 54.4943L67.7218 50.4332C69.84 48.4477 71.31 45.8694 71.9397 43.0352C72.5693 40.201 72.3293 37.2428 71.2511 34.5472C70.1728 31.8516 68.3065 29.5439 65.8959 27.9258C63.4854 26.3077 60.6428 25.4545 57.7396 25.4775H57.7623ZM57.7623 49.7072C55.8344 49.6804 53.9574 49.0842 52.3674 47.9935C50.7774 46.9029 49.5454 45.3666 48.8261 43.5777C48.1069 41.7888 47.9325 39.8271 48.3251 37.9394C48.7176 36.0517 49.6594 34.3222 51.0322 32.9683C52.4049 31.6144 54.1473 30.6965 56.0403 30.3301C57.9332 29.9638 59.8923 30.1652 61.6711 30.9091C63.4499 31.653 64.969 32.9062 66.0375 34.5111C67.1061 36.116 67.6763 38.001 67.6765 39.9291C67.6525 42.5386 66.596 45.0324 64.738 46.8649C62.88 48.6973 60.3718 49.7193 57.7623 49.7072Z" fill="url(#paint4_linear_914_1011)"/>
<defs>
<linearGradient id="paint0_linear_914_1011" x1="0" y1="54.4488" x2="80.472" y2="37.5954" gradientUnits="userSpaceOnUse">
<stop stop-color="#ED6A01"/>
<stop offset="1" stop-color="#FFCC00"/>
</linearGradient>
<linearGradient id="paint1_linear_914_1011" x1="11.3438" y1="17.2421" x2="23.1331" y2="-2.43332" gradientUnits="userSpaceOnUse">
<stop stop-color="#ED6A01"/>
<stop offset="1" stop-color="#FFCC00"/>
</linearGradient>
<linearGradient id="paint2_linear_914_1011" x1="11.3438" y1="26.3169" x2="24.6741" y2="11.9217" gradientUnits="userSpaceOnUse">
<stop stop-color="#ED6A01"/>
<stop offset="1" stop-color="#FFCC00"/>
</linearGradient>
<linearGradient id="paint3_linear_914_1011" x1="11.3438" y1="42.1978" x2="24.7112" y2="29.0748" gradientUnits="userSpaceOnUse">
<stop stop-color="#ED6A01"/>
<stop offset="1" stop-color="#FFCC00"/>
</linearGradient>
<linearGradient id="paint4_linear_914_1011" x1="43.2188" y1="64" x2="76.3826" y2="60.0699" gradientUnits="userSpaceOnUse">
<stop stop-color="#ED6A01"/>
<stop offset="1" stop-color="#FFCC00"/>
</linearGradient>
</defs>
</svg>
