<svg width="75" height="64" viewBox="0 0 75 64" fill="none" xmlns="http://www.w3.org/2000/svg">
<path d="M54.0127 0C47.1278 0 41.0997 2.9607 37.3421 7.96521C33.5846 2.9607 27.5565 0 20.6715 0C15.191 0.00617725 9.93671 2.18605 6.06138 6.06138C2.18605 9.93671 0.00617725 15.191 0 20.6715C0 44.0104 34.6048 62.9015 36.0785 63.6817C36.4669 63.8906 36.9011 64 37.3421 64C37.7832 64 38.2174 63.8906 38.6058 63.6817C40.0794 62.9015 74.6843 44.0104 74.6843 20.6715C74.6781 15.191 72.4982 9.93671 68.6229 6.06138C64.7476 2.18605 59.4933 0.00617725 54.0127 0ZM37.3421 58.2804C31.254 54.7329 5.33459 38.5724 5.33459 20.6715C5.33988 16.6056 6.95744 12.7076 9.83253 9.83253C12.7076 6.95744 16.6056 5.33988 20.6715 5.33459C27.1564 5.33459 32.601 8.78874 34.8749 14.3367C35.0758 14.8259 35.4177 15.2444 35.857 15.5388C36.2963 15.8333 36.8133 15.9905 37.3421 15.9905C37.871 15.9905 38.388 15.8333 38.8273 15.5388C39.2666 15.2444 39.6084 14.8259 39.8094 14.3367C42.0833 8.77874 47.5279 5.33459 54.0127 5.33459C58.0787 5.33988 61.9767 6.95744 64.8518 9.83253C67.7268 12.7076 69.3444 16.6056 69.3497 20.6715C69.3497 38.5458 43.4236 54.7296 37.3421 58.2804Z" fill="url(#paint0_linear_843_2560)"/>
<defs>
<linearGradient id="paint0_linear_843_2560" x1="0" y1="64" x2="83.6063" y2="48.6753" gradientUnits="userSpaceOnUse">
<stop stop-color="#ED6A01"/>
<stop offset="1" stop-color="#FFCC00"/>
</linearGradient>
</defs>
</svg>
