<svg xmlns="http://www.w3.org/2000/svg">
  <defs>
    <!-- SEARCH -->
    <symbol viewBox="0 0 24 24" id="IcRoundSearch">
        <path fill="currentColor" d="M15.5 14h-.79l-.28-.27a6.5 6.5 0 0 0 1.48-5.34c-.47-2.78-2.79-5-5.59-5.34a6.505 6.505 0 0 0-7.27 7.27c.34 2.8 2.56 5.12 5.34 5.59a6.5 6.5 0 0 0 5.34-1.48l.27.28v.79l4.25 4.25c.41.41 1.08.41 1.49 0c.41-.41.41-1.08 0-1.49zm-6 0C7.01 14 5 11.99 5 9.5S7.01 5 9.5 5S14 7.01 14 9.5S11.99 14 9.5 14"></path>
    </symbol>
    <!-- CHEVRON DOWN -->
    <symbol viewBox="0 0 24 24" id="IcArrowDown">
    <path fill="currentColor" d="M8.12 9.29L12 13.17l3.88-3.88a.996.996 0 1 1 1.41 1.41l-4.59 4.59a.996.996 0 0 1-1.41 0L6.7 10.7a.996.996 0 0 1 0-1.41c.39-.38 1.03-.39 1.42 0"></path>
    </symbol>
  </defs>
</svg>
