<svg width="64" height="82" viewBox="0 0 64 82" fill="none" xmlns="http://www.w3.org/2000/svg">
<path d="M41.2056 42.2059C38.4989 44.9127 34.8277 46.4333 30.9997 46.4333C27.1718 46.4333 23.5006 44.9127 20.7938 42.2059C18.0871 39.4991 16.5664 35.8279 16.5664 32C16.5664 28.172 18.0871 24.5009 20.7938 21.7941C23.5006 19.0873 27.1718 17.5667 30.9997 17.5667C34.8277 17.5667 38.4989 19.0873 41.2056 21.7941C43.9124 24.5009 45.4331 28.172 45.4331 32C45.4331 35.8279 43.9124 39.4991 41.2056 42.2059ZM37.8788 25.1209C37.2126 24.4548 35.9376 23.7062 34.6533 23.1309C33.375 22.5581 31.9612 22.1 30.9997 22.1C30.0383 22.1 28.6245 22.5581 27.3461 23.1309C26.0619 23.7062 24.7868 24.4548 24.1207 25.1209C23.4546 25.7871 22.706 27.0621 22.1306 28.3464C21.5579 29.6247 21.0997 31.0385 21.0997 32C21.0997 32.9614 21.5579 34.3752 22.1306 35.6536C22.706 36.9378 23.4546 38.2129 24.1207 38.879C24.7868 39.5452 26.0619 40.2938 27.3461 40.8691C28.6245 41.4418 30.0383 41.9 30.9997 41.9C31.9612 41.9 33.375 41.4418 34.6533 40.8691C35.9376 40.2938 37.2126 39.5452 37.8788 38.879C38.5449 38.2129 39.2935 36.9378 39.8689 35.6536C40.4416 34.3752 40.8997 32.9614 40.8997 32C40.8997 31.0385 40.4416 29.6247 39.8689 28.3464C39.2935 27.0621 38.5449 25.7871 37.8788 25.1209Z" fill="url(#paint0_linear_957_5797)" stroke="url(#paint1_linear_957_5797)"/>
<path d="M32 80.5667C28.8536 80.5667 25.3057 78.7579 21.7148 75.6497C18.1374 72.5532 14.5829 68.2232 11.432 63.3144C5.12047 53.4817 0.5 41.4417 0.5 32.5248C0.5 14.8473 14.5945 0.5 32 0.5C49.4055 0.5 63.5 14.8473 63.5 32.5248C63.5 41.4417 58.8795 53.4817 52.568 63.3144C49.4171 68.2232 45.8626 72.5532 42.2852 75.6497C38.6943 78.7579 35.1464 80.5667 32 80.5667ZM32 76.0333C33.0831 76.0333 34.2992 75.5157 35.5638 74.6758C36.8401 73.828 38.2238 72.6126 39.6544 71.1282C42.517 68.1581 45.6116 64.0646 48.4642 59.5439C51.3177 55.0216 53.9386 50.0564 55.8478 45.3364C57.7528 40.6266 58.9667 36.1188 58.9667 32.5248C58.9667 25.7264 55.508 18.8592 50.4428 13.7027C45.3785 8.54706 38.6407 5.03333 32 5.03333C25.3593 5.03333 18.6215 8.54706 13.5572 13.7027C8.49199 18.8592 5.03333 25.7264 5.03333 32.5248C5.03333 36.1188 6.24721 40.6266 8.15223 45.3364C10.0614 50.0564 12.6823 55.0216 15.5358 59.5439C18.3884 64.0646 21.483 68.1581 24.3456 71.1282C25.7762 72.6126 27.1599 73.828 28.4362 74.6758C29.7008 75.5157 30.9169 76.0333 32 76.0333Z" fill="url(#paint2_linear_957_5797)" stroke="url(#paint3_linear_957_5797)"/>
<defs>
<linearGradient id="paint0_linear_957_5797" x1="16.0664" y1="46.9333" x2="49.7923" y2="41.6359" gradientUnits="userSpaceOnUse">
<stop stop-color="#ED6A01"/>
<stop offset="1" stop-color="#FFCC00"/>
</linearGradient>
<linearGradient id="paint1_linear_957_5797" x1="16.0664" y1="46.9333" x2="49.7923" y2="41.6359" gradientUnits="userSpaceOnUse">
<stop stop-color="#ED6A01"/>
<stop offset="1" stop-color="#FFCC00"/>
</linearGradient>
<linearGradient id="paint2_linear_957_5797" x1="0" y1="81.0667" x2="72.9312" y2="72.0228" gradientUnits="userSpaceOnUse">
<stop stop-color="#ED6A01"/>
<stop offset="1" stop-color="#FFCC00"/>
</linearGradient>
<linearGradient id="paint3_linear_957_5797" x1="0" y1="81.0667" x2="72.9312" y2="72.0228" gradientUnits="userSpaceOnUse">
<stop stop-color="#ED6A01"/>
<stop offset="1" stop-color="#FFCC00"/>
</linearGradient>
</defs>
</svg>
