<svg width="359" height="108" viewBox="0 0 359 108" fill="none" xmlns="http://www.w3.org/2000/svg">
<mask id="mask0_1172_1168" style="mask-type:alpha" maskUnits="userSpaceOnUse" x="0" y="0" width="141" height="64">
<path d="M138.751 54.0092C139.856 54.0092 140.751 54.9046 140.751 56.0092V61.829C140.751 62.9336 139.856 63.829 138.751 63.829H123.111C122.007 63.829 121.111 62.9336 121.111 61.829V56.0092C121.111 54.9046 122.007 54.0092 123.111 54.0092H138.751Z" fill="black"/>
<path d="M108.362 5.72827C109.467 5.72827 110.362 6.6237 110.362 7.72827V15.5645H113.414C114.518 15.5645 115.414 16.4599 115.414 17.5645V23.4477C115.414 24.5523 114.518 25.4477 113.414 25.4477H110.362V46.1803C110.362 50.2905 110.563 52.5809 110.965 53.0515C111.292 53.4076 112.371 53.629 114.202 53.7157C115.305 53.7679 116.202 54.6529 116.202 55.7575V61.829C116.202 62.9336 115.306 63.829 114.202 63.829H108.648C104.384 63.829 101.34 63.6564 99.5176 63.3113C97.6947 62.9348 96.088 62.1034 94.6977 60.817C93.3073 59.4992 92.4422 58.0089 92.1024 56.346C91.7625 54.6517 91.5926 50.6984 91.5926 44.486V25.4477H89.5605C88.456 25.4477 87.5605 24.5523 87.5605 23.4477V17.5645C87.5605 16.4599 88.456 15.5645 89.5605 15.5645H91.5926V7.72827C91.5926 6.6237 92.488 5.72827 93.5926 5.72827H108.362Z" fill="black"/>
<path d="M80.6504 0C81.755 0 82.6504 0.895431 82.6504 2V7.97973C82.6504 9.0843 81.755 9.97974 80.6504 9.97974H65.0107C63.9062 9.97974 63.0107 9.0843 63.0107 7.97974V2C63.0107 0.895431 63.9062 0 65.0107 0H80.6504ZM80.6504 13.8108C81.755 13.8108 82.6504 14.7062 82.6504 15.8108V61.829C82.6504 62.9336 81.755 63.829 80.6504 63.829H65.0107C63.9062 63.829 63.0107 62.9336 63.0107 61.829V15.8108C63.0107 14.7062 63.9062 13.8108 65.0107 13.8108H80.6504Z" fill="black"/>
<path d="M28.8512 1.96755C32.0002 4.76928 33.76 9.81704 32.4402 14.1702C31.5835 17.6665 29.1754 21.2092 27.925 24.0341C27.1609 25.7939 26.9525 27.1832 27.1609 28.2946C27.8324 31.3047 30.0784 32.1615 33.0654 33.736C34.8946 34.6159 36.9785 35.5189 39.1319 36.5377C46.912 39.9878 53.2564 45.0819 57.9568 51.4726C57.9568 45.9618 57.7021 42.5812 57.239 41.3539C56.7528 40.1036 55.5487 38.7143 53.6037 37.2092C51.6587 35.7042 47.8382 34.5001 42.1652 33.5971C48.4402 33.2266 52.6312 32.092 54.7615 30.2165C56.8917 28.3409 57.9568 24.6593 57.9568 19.1716C57.9568 13.1745 56.4518 8.79823 53.4185 6.06595C50.4083 3.33368 46.4952 1.62022 41.7021 0.948732C38.5299 0.50879 33.4358 0.207777 26.4199 0.0688477C27.2535 0.624564 28.0639 1.24975 28.8512 1.94439V1.96755Z" fill="black"/>
<path d="M32.903 47.6527C26.0724 43.2533 17.1114 38.3907 17.4819 28.5731C17.4356 23.0622 21.5572 18.1534 24.4515 14.3328C26.6049 11.5311 27.3227 8.45152 25.0767 5.32561C23.479 3.14906 21.3951 1.45876 19.0796 0C17.5282 0 15.9074 0 14.2171 0H1.71346C0.76411 0 0 0.76411 0 1.71346V62.2865C0 63.2359 0.76411 64 1.71346 64H20.8857C21.835 64 22.5991 63.2359 22.5991 62.2865V49.2967C26.5586 49.2967 28.9899 49.7366 29.9161 50.6396C30.8423 51.5427 31.3054 53.8813 31.3054 57.6324V62.2865C31.3054 63.2359 32.0695 64 33.0188 64H46.9349C44.2721 56.9378 39.5253 51.9132 32.8799 47.6527H32.903Z" fill="black"/>
</mask>
<g mask="url(#mask0_1172_1168)">
<rect width="140.751" height="63.829" fill="#F5F5F5"/>
</g>
<path d="M18.7029 97.456C18.1909 98 17.8069 98.16 16.5909 98.16C15.1829 98.16 13.9669 97.616 13.3909 96.208L11.7589 92.24C10.7669 89.84 9.83888 89.68 8.68688 89.488C7.72688 89.328 6.95888 89.2 6.51088 89.2V98H5.10288C3.15088 98 2.12688 96.816 2.12688 95.056V76.688C3.05488 76.336 6.12688 75.888 7.75888 75.888H10.1909C14.5429 75.888 17.3909 78.512 17.3909 82.192C17.3909 85.168 15.4389 87.632 12.8789 88.016C14.0629 88.496 15.0549 89.808 15.5989 91.088L17.3589 95.184C17.9029 96.464 18.4469 97.072 18.7029 97.456ZM9.67888 79.664H8.46288C8.04688 79.664 6.99088 79.76 6.51088 79.888V85.68C7.47088 85.872 8.46288 85.872 9.64688 85.872C11.4389 85.872 12.9429 84.848 12.9429 82.896C12.9429 80.24 11.5989 79.664 9.67888 79.664ZM34.9994 87.024C34.9994 90.192 32.5994 91.216 26.9034 91.216H24.0874C24.4074 93.392 26.3914 94.768 28.9194 94.768C30.7114 94.768 32.8234 94.416 34.1994 93.136H34.3594V94.48C34.3594 96.688 32.8554 98.384 28.1194 98.384C23.8314 98.384 19.6394 94.992 19.6394 89.712C19.6394 83.952 23.1594 80.336 28.0874 80.336C31.6714 80.336 34.9994 82.896 34.9994 87.024ZM30.9674 86.512C30.9674 84.784 29.6874 83.92 27.7034 83.92C25.6234 83.92 24.1834 85.616 24.0874 87.6L24.0554 88.176H25.9754C30.0394 88.176 30.9674 87.728 30.9674 86.512ZM52.2671 82.768C52.2671 83.28 51.8511 85.36 50.7951 88.24C49.6431 91.408 47.7231 95.568 45.8031 98.192H44.9711C43.6911 98.192 43.0191 97.744 42.1551 96.464C39.8191 92.912 36.8751 85.392 36.4911 80.72H38.7951C40.2671 80.72 41.1951 81.84 41.3551 82.768C41.9631 85.968 42.8271 89.296 44.6511 92.848C46.2831 89.616 47.7871 85.04 48.4271 80.72H50.2511C51.7231 80.72 52.2671 81.36 52.2671 82.768ZM54.0144 89.68C54.0144 84.496 56.9904 80.336 62.5584 80.336C67.7424 80.336 70.7184 84.496 70.7184 89.072C70.7184 94.256 67.7424 98.384 62.1744 98.384C56.9904 98.384 54.0144 94.256 54.0144 89.68ZM66.2704 89.68C66.2704 86.224 64.9904 84.176 62.1744 84.176C59.7104 84.176 58.4624 86.224 58.4624 89.072C58.4624 92.496 59.7104 94.544 62.5584 94.544C65.0544 94.544 66.2704 92.496 66.2704 89.68ZM82.5764 95.568C82.5764 97.424 81.5844 98.16 79.6964 98.16C76.1444 98.16 74.2244 96.272 74.2244 92.784V74.96H75.4404C77.5844 74.96 78.5124 76.208 78.5124 77.84V92.368C78.5124 94.096 79.4084 94.64 81.4244 94.64H82.5764V95.568ZM99.6699 90.256C99.6699 95.632 97.1419 98.384 92.1179 98.384C87.8619 98.384 84.5019 95.568 84.5019 90.544V80.72H85.3019C87.7659 80.72 88.8539 81.776 88.8539 83.792V90.128C88.8539 93.296 90.3899 94.576 92.3419 94.576C94.1019 94.576 95.3499 93.36 95.3499 90.416V80.72H96.1179C98.6139 80.72 99.6699 81.776 99.6699 83.792V90.256ZM103.974 81.424C103.974 79.728 104.294 79.088 105.222 78C105.798 77.328 106.566 76.816 107.238 76.816H108.23V80.72H114.214V82.48C114.214 83.376 113.414 84.528 111.654 84.528H108.23V91.28C108.23 93.52 109.222 94.384 110.95 94.384C112.326 94.384 113.382 94.192 114.054 93.776H114.214V95.312C114.214 97.072 112.934 98.192 110.438 98.192C106.086 98.192 103.974 95.824 103.974 91.792V81.424ZM121.967 76.976C121.967 78.352 120.815 79.504 119.439 79.504C118.063 79.504 116.943 78.352 116.943 76.976C116.943 75.6 118.063 74.48 119.439 74.48C120.815 74.48 121.967 75.6 121.967 76.976ZM125.039 95.568C125.039 97.424 124.303 98.16 122.479 98.16C119.151 98.16 117.327 96.272 117.327 92.784V81.104H118.543C120.463 81.104 121.615 82.128 121.615 84.304V92.368C121.615 94.096 122.351 94.64 124.239 94.64H125.039V95.568ZM126.639 89.68C126.639 84.496 129.615 80.336 135.183 80.336C140.367 80.336 143.343 84.496 143.343 89.072C143.343 94.256 140.367 98.384 134.799 98.384C129.615 98.384 126.639 94.256 126.639 89.68ZM138.895 89.68C138.895 86.224 137.615 84.176 134.799 84.176C132.335 84.176 131.087 86.224 131.087 89.072C131.087 92.496 132.335 94.544 135.183 94.544C137.679 94.544 138.895 92.496 138.895 89.68ZM161.889 98H160.737C158.817 98 157.601 96.784 157.601 95.184V88.336C157.601 85.424 156.321 84.144 154.113 84.144C152.257 84.144 150.977 85.552 150.977 88.016V98H149.697C147.873 98 146.689 96.784 146.689 95.184V87.728C146.689 84.08 149.089 80.336 154.465 80.336C158.529 80.336 161.889 83.056 161.889 87.952V98ZM178.342 76.976C178.342 78.352 177.19 79.504 175.814 79.504C174.438 79.504 173.318 78.352 173.318 76.976C173.318 75.6 174.438 74.48 175.814 74.48C177.19 74.48 178.342 75.6 178.342 76.976ZM181.414 95.568C181.414 97.424 180.678 98.16 178.854 98.16C175.526 98.16 173.702 96.272 173.702 92.784V81.104H174.918C176.838 81.104 177.99 82.128 177.99 84.304V92.368C177.99 94.096 178.726 94.64 180.614 94.64H181.414V95.568ZM199.014 98H197.862C195.942 98 194.726 96.784 194.726 95.184V88.336C194.726 85.424 193.446 84.144 191.238 84.144C189.382 84.144 188.102 85.552 188.102 88.016V98H186.822C184.998 98 183.814 96.784 183.814 95.184V87.728C183.814 84.08 186.214 80.336 191.59 80.336C195.654 80.336 199.014 83.056 199.014 87.952V98ZM210.443 81.424C210.443 79.728 210.763 79.088 211.691 78C212.267 77.328 213.035 76.816 213.707 76.816H214.699V80.72H220.683V82.48C220.683 83.376 219.883 84.528 218.123 84.528H214.699V91.28C214.699 93.52 215.691 94.384 217.419 94.384C218.795 94.384 219.851 94.192 220.523 93.776H220.683V95.312C220.683 97.072 219.403 98.192 216.907 98.192C212.555 98.192 210.443 95.824 210.443 91.792V81.424ZM233.204 84.912H233.044C232.404 84.656 231.668 84.4 230.548 84.4C228.628 84.4 227.572 85.456 227.572 88.08V98H226.388C224.468 98 223.252 97.04 223.252 95.248V87.312C223.252 83.856 225.076 80.56 229.62 80.56C232.276 80.56 233.204 82.064 233.204 83.376V84.912ZM249.132 92.112C249.132 95.76 246.444 98.288 242.604 98.288H241.74C237.644 98.288 234.828 95.984 234.828 92.816C234.828 89.744 237.068 87.408 243.404 87.408H244.908V87.184C244.908 84.752 243.756 84.016 241.196 84.016C238.092 84.016 236.364 85.2 235.724 86H235.564V84.624C235.564 82.704 237.292 80.4 241.836 80.4C245.676 80.4 249.132 82.192 249.132 88.144V92.112ZM244.94 92.144V90.48H243.404C240.14 90.48 239.212 91.248 239.212 92.656C239.212 94 240.3 94.8 242.188 94.8C244.044 94.8 244.94 93.904 244.94 92.144ZM267.733 98H266.581C264.661 98 263.445 96.784 263.445 95.184V88.336C263.445 85.424 262.165 84.144 259.957 84.144C258.101 84.144 256.821 85.552 256.821 88.016V98H255.541C253.717 98 252.533 96.784 252.533 95.184V87.728C252.533 84.08 254.933 80.336 260.309 80.336C264.373 80.336 267.733 83.056 267.733 87.952V98ZM284.324 92.56C284.324 96.208 281.764 98.384 277.124 98.384C273.956 98.384 271.588 96.752 271.588 94.992V93.04H271.748C272.676 93.904 274.884 94.672 276.932 94.672C279.044 94.672 280.068 94.064 280.068 92.784C280.068 91.792 279.46 91.312 276.484 90.896C272.836 90.384 271.076 88.944 271.076 86.32C271.076 83.088 273.988 80.336 278.404 80.336C282.308 80.336 283.908 82.352 283.908 84.016V85.648H283.748C282.852 84.752 280.868 84.048 278.82 84.048C276.196 84.048 275.364 84.848 275.364 85.968C275.364 86.832 275.876 87.184 278.82 87.664C282.404 88.24 284.324 89.808 284.324 92.56ZM304.138 88.848C304.138 94.384 301.386 98.384 296.362 98.384C294.442 98.384 292.874 97.296 292.01 95.824V103.44H290.666C289.13 103.44 287.658 102.32 287.658 100.464V90.032C287.658 84.304 290.218 80.336 296.298 80.336C300.874 80.336 304.138 84.496 304.138 88.848ZM299.722 89.968C299.722 85.904 298.378 84.144 295.626 84.144C293.258 84.144 291.946 86.192 291.946 89.168C291.946 92.624 293.642 94.576 296.202 94.576C298.282 94.576 299.722 92.72 299.722 89.968ZM306.702 89.68C306.702 84.496 309.678 80.336 315.246 80.336C320.43 80.336 323.406 84.496 323.406 89.072C323.406 94.256 320.43 98.384 314.862 98.384C309.678 98.384 306.702 94.256 306.702 89.68ZM318.958 89.68C318.958 86.224 317.678 84.176 314.862 84.176C312.398 84.176 311.15 86.224 311.15 89.072C311.15 92.496 312.398 94.544 315.246 94.544C317.742 94.544 318.958 92.496 318.958 89.68ZM336.704 84.912H336.544C335.904 84.656 335.168 84.4 334.048 84.4C332.128 84.4 331.072 85.456 331.072 88.08V98H329.888C327.968 98 326.752 97.04 326.752 95.248V87.312C326.752 83.856 328.576 80.56 333.12 80.56C335.776 80.56 336.704 82.064 336.704 83.376V84.912ZM339.256 81.424C339.256 79.728 339.576 79.088 340.504 78C341.08 77.328 341.848 76.816 342.52 76.816H343.512V80.72H349.496V82.48C349.496 83.376 348.696 84.528 346.936 84.528H343.512V91.28C343.512 93.52 344.504 94.384 346.232 94.384C347.608 94.384 348.664 94.192 349.336 93.776H349.496V95.312C349.496 97.072 348.216 98.192 345.72 98.192C341.368 98.192 339.256 95.824 339.256 91.792V81.424ZM357.248 95.248C357.248 96.752 356 98 354.496 98C352.992 98 351.744 96.752 351.744 95.248C351.744 93.744 352.992 92.496 354.496 92.496C356 92.496 357.248 93.744 357.248 95.248Z" fill="white"/>
</svg>
