<svg width="201" height="95" viewBox="0 0 201 95" fill="none" xmlns="http://www.w3.org/2000/svg">
<mask id="mask0_1548_1477" style="mask-type:alpha" maskUnits="userSpaceOnUse" x="0" y="0" width="201" height="95">
<path d="M197.756 80.0964C199.331 80.0964 200.607 81.3727 200.607 82.9469V91.7398C200.607 93.3141 199.331 94.5904 197.756 94.5904H175.466C173.891 94.5904 172.615 93.3141 172.615 91.7398V82.9469C172.615 81.3727 173.891 80.0964 175.466 80.0964H197.756Z" fill="black"/>
<path d="M154.445 8.83472C156.019 8.83472 157.295 10.1109 157.295 11.6852V23.3528H161.644C163.219 23.3528 164.495 24.629 164.495 26.2033V35.0898C164.495 36.6641 163.219 37.9403 161.644 37.9403H157.295V68.5412C157.295 74.6078 157.581 77.9884 158.154 78.683C158.62 79.2086 160.158 79.5354 162.767 79.6633C164.34 79.7404 165.618 81.0012 165.618 82.5755V91.7399C165.618 93.3142 164.342 94.5904 162.767 94.5904H154.851C148.774 94.5904 144.437 94.3357 141.839 93.8263C139.241 93.2706 136.951 92.0434 134.969 90.1447C132.987 88.1997 131.755 85.9999 131.27 83.5455C130.786 81.0448 130.544 75.2098 130.544 66.0405V37.9403H127.647C126.073 37.9403 124.797 36.6641 124.797 35.0898V26.2033C124.797 24.629 126.073 23.3528 127.647 23.3528H130.544V11.6852C130.544 10.1109 131.82 8.83472 133.394 8.83472H154.445Z" fill="black"/>
<path d="M114.947 0.379883C116.521 0.379883 117.797 1.6561 117.797 3.23039V12.2593C117.797 13.8336 116.521 15.1098 114.947 15.1098H92.6562C91.0819 15.1098 89.8057 13.8336 89.8057 12.2593V3.23039C89.8057 1.6561 91.0819 0.379883 92.6562 0.379883H114.947ZM114.947 20.7644C116.521 20.7644 117.797 22.0406 117.797 23.6149V91.7398C117.797 93.3141 116.521 94.5903 114.947 94.5903H92.6562C91.0819 94.5903 89.8057 93.3141 89.8057 91.7398V23.6149C89.8057 22.0406 91.0819 20.7644 92.6562 20.7644H114.947Z" fill="black"/>
<path d="M41.1195 3.28413C45.6077 7.41945 48.1158 14.8698 46.2347 21.295C45.0136 26.4556 41.5815 31.6845 39.7994 35.854C38.7103 38.4514 38.4133 40.502 38.7103 42.1424C39.6674 46.5853 42.8685 47.8498 47.1257 50.1738C49.7329 51.4725 52.703 52.8054 55.7722 54.3091C66.8607 59.4014 75.9031 66.9201 82.6024 76.3527C82.6024 68.2188 82.2394 63.2291 81.5794 61.4178C80.8863 59.5723 79.1703 57.5217 76.3981 55.3002C73.626 53.0788 68.1807 51.3016 60.0954 49.9688C69.0388 49.4219 75.0121 47.7473 78.0482 44.979C81.0844 42.2108 82.6024 36.7768 82.6024 28.677C82.6024 19.8254 80.4573 13.3661 76.1341 9.33331C71.8439 5.30053 66.2667 2.77149 59.4353 1.78038C54.9141 1.13104 47.6538 0.686746 37.6543 0.481689C38.8424 1.30192 39.9974 2.22467 41.1195 3.24996V3.28413Z" fill="black"/>
<path d="M46.8952 70.7144C37.1598 64.2209 24.3882 57.0439 24.9162 42.5532C24.8502 34.4193 30.7245 27.174 34.8496 21.5349C37.9188 17.3996 38.9418 12.8542 35.7407 8.2404C33.4636 5.02784 30.4934 2.53298 27.1933 0.379883C24.9822 0.379883 22.6721 0.379883 20.263 0.379883H2.44212C1.08905 0.379883 0 1.5077 0 2.90892V92.3137C0 93.7149 1.08905 94.8428 2.44212 94.8428H29.7674C31.1205 94.8428 32.2095 93.7149 32.2095 92.3137V73.1409C37.8528 73.1409 41.3179 73.7902 42.638 75.1231C43.9581 76.456 44.6181 79.9078 44.6181 85.4443V92.3137C44.6181 93.7149 45.7072 94.8428 47.0602 94.8428H66.8942C63.099 84.419 56.3337 77.0028 46.8622 70.7144H46.8952Z" fill="black"/>
</mask>
<g mask="url(#mask0_1548_1477)">
<rect y="0.379883" width="200.606" height="94.2105" fill="url(#paint0_linear_1548_1477)"/>
</g>
<defs>
<linearGradient id="paint0_linear_1548_1477" x1="0" y1="94.5903" x2="208.763" y2="24.7668" gradientUnits="userSpaceOnUse">
<stop stop-color="#ED6A01"/>
<stop offset="1" stop-color="#FFCC00"/>
</linearGradient>
</defs>
</svg>
