<svg width="64" height="64" viewBox="0 0 64 64" fill="none" xmlns="http://www.w3.org/2000/svg">
<path fill-rule="evenodd" clip-rule="evenodd" d="M32 0C49.6736 0 64 14.3264 64 32C64 49.6736 49.6736 64 32 64C14.3264 64 0 49.6736 0 32C0 14.3264 14.3264 0 32 0ZM32 6.4C25.2105 6.4 18.699 9.09714 13.8981 13.8981C9.09714 18.699 6.4 25.2105 6.4 32C6.4 38.7895 9.09714 45.301 13.8981 50.1019C18.699 54.9029 25.2105 57.6 32 57.6C38.7895 57.6 45.301 54.9029 50.1019 50.1019C54.9029 45.301 57.6 38.7895 57.6 32C57.6 25.2105 54.9029 18.699 50.1019 13.8981C45.301 9.09714 38.7895 6.4 32 6.4ZM36.8 16C39.72 15.9958 42.5262 17.1321 44.6206 19.1668C46.7149 21.2016 47.9318 23.9738 48.012 26.8927C48.0921 29.8116 47.0291 32.6464 45.0495 34.7929C43.0699 36.9395 40.3302 38.228 37.4144 38.384L36.8 38.4H28.8V44.8C28.7991 45.6156 28.4868 46.4001 27.9269 46.9932C27.367 47.5863 26.6018 47.9431 25.7875 47.9909C24.9733 48.0387 24.1716 47.7738 23.5461 47.2504C22.9207 46.7269 22.5187 45.9843 22.4224 45.1744L22.4 44.8V22.4C22.3995 20.7854 23.0093 19.2302 24.1072 18.0462C25.2051 16.8623 26.7099 16.1371 28.32 16.016L28.8 16H36.8ZM36.8 22.4H28.8V32H36.8C38.0327 31.9994 39.2179 31.5246 40.11 30.6739C41.0022 29.8232 41.5328 28.6619 41.5921 27.4307C41.6513 26.1994 41.2346 24.9925 40.4282 24.0602C39.6219 23.1278 38.4877 22.5413 37.2608 22.4224L36.8 22.4Z" fill="url(#paint0_linear_865_2645)"/>
<defs>
<linearGradient id="paint0_linear_865_2645" x1="0" y1="64" x2="72.2697" y2="52.6483" gradientUnits="userSpaceOnUse">
<stop stop-color="#ED6A01"/>
<stop offset="1" stop-color="#FFCC00"/>
</linearGradient>
</defs>
</svg>
