<svg width="64" height="64" viewBox="0 0 64 64" fill="none" xmlns="http://www.w3.org/2000/svg">
<path d="M36.8 16.5H36.8007C39.5904 16.496 42.2713 17.5816 44.2722 19.5255C46.273 21.4694 47.4356 24.1178 47.5121 26.9064C47.5887 29.695 46.5731 32.4032 44.6819 34.454C42.7922 36.503 40.1776 37.7337 37.3945 37.8843L36.7934 37.9H28.8H28.3V38.4V44.7994C28.2992 45.4876 28.0357 46.1495 27.5633 46.6499C27.0909 47.1503 26.4452 47.4515 25.7582 47.4918C25.0712 47.5321 24.3948 47.3086 23.8671 46.8669C23.3429 46.4282 23.0048 45.8072 22.9206 45.1293L22.9 44.7851V22.4V22.3998C22.8995 20.9113 23.4617 19.4777 24.4738 18.3862C25.4836 17.2973 26.8669 16.6293 28.3473 16.5154L28.8083 16.5H36.8ZM36.8243 21.9006L36.8121 21.9H36.8H28.8H28.3V22.4V32V32.5H28.8H36.8H36.8002C38.1614 32.4993 39.47 31.975 40.4551 31.0358C41.4401 30.0965 42.0261 28.8142 42.0915 27.4547C42.1569 26.0952 41.6968 24.7626 40.8064 23.7331C39.9161 22.7036 38.6638 22.0561 37.309 21.9247L37.2971 21.9236L37.2851 21.923L36.8243 21.9006ZM32 0.5C49.3975 0.5 63.5 14.6025 63.5 32C63.5 49.3975 49.3975 63.5 32 63.5C14.6025 63.5 0.5 49.3975 0.5 32C0.5 14.6025 14.6025 0.5 32 0.5ZM32 5.9C25.0779 5.9 18.4392 8.64981 13.5445 13.5445C8.64981 18.4392 5.9 25.0779 5.9 32C5.9 38.9221 8.64981 45.5608 13.5445 50.4555C18.4392 55.3502 25.0779 58.1 32 58.1C38.9221 58.1 45.5608 55.3502 50.4555 50.4555C55.3502 45.5608 58.1 38.9221 58.1 32C58.1 25.0779 55.3502 18.4392 50.4555 13.5445C45.5608 8.64981 38.9221 5.9 32 5.9Z" fill="url(#paint0_linear_957_5800)" stroke="url(#paint1_linear_957_5800)"/>
<defs>
<linearGradient id="paint0_linear_957_5800" x1="0" y1="64" x2="72.2697" y2="52.6483" gradientUnits="userSpaceOnUse">
<stop stop-color="#ED6A01"/>
<stop offset="1" stop-color="#FFCC00"/>
</linearGradient>
<linearGradient id="paint1_linear_957_5800" x1="0" y1="64" x2="72.2697" y2="52.6483" gradientUnits="userSpaceOnUse">
<stop stop-color="#ED6A01"/>
<stop offset="1" stop-color="#FFCC00"/>
</linearGradient>
</defs>
</svg>
