<svg width="55" height="68" viewBox="0 0 55 68" fill="none" xmlns="http://www.w3.org/2000/svg">
<path d="M27.5 6.12226C21.8273 6.12226 16.387 8.37984 12.3758 12.3984C8.36458 16.4169 6.11111 21.8672 6.11111 27.5502C6.11111 36.3112 11.5561 44.7629 17.5328 51.3107C20.5904 54.6445 23.9248 57.7126 27.5 60.4819C31.0752 57.7147 34.4095 54.6487 37.4672 51.3168C43.4439 44.7629 48.8889 36.3142 48.8889 27.5502C48.8889 21.8672 46.6354 16.4169 42.6242 12.3984C38.613 8.37984 33.1727 6.12226 27.5 6.12226ZM27.5 68L25.7675 66.8062L25.7583 66.8L25.74 66.7847L25.6789 66.7419L25.4497 66.5796C24.1845 65.6582 22.9475 64.6986 21.7403 63.7022C18.6461 61.1558 15.7332 58.3961 13.0228 55.4432C6.77722 48.5985 0 38.6835 0 27.5502C1.08681e-07 20.2434 2.89731 13.2359 8.05456 8.06926C13.2118 2.9026 20.2065 0 27.5 0C34.7935 0 41.7882 2.9026 46.9454 8.06926C52.1027 13.2359 55 20.2434 55 27.5502C55 38.6835 48.2228 48.6016 41.9772 55.4432C38.4385 59.2993 34.5561 62.824 30.3783 65.9735C30.0302 66.2341 29.6788 66.4902 29.3242 66.7419L29.26 66.7847L29.2417 66.8L29.2356 66.8031L27.5 68Z" fill="url(#paint0_linear_1301_1191)"/>
<path d="M38.92 26.92C38.92 32.72 34.92 36.28 29.68 36.28C27.76 36.28 26.2 35.96 25.08 35.36V46H22.92C21.4 46 19.6 45 19.6 42.08V19.68C21.12 19.12 24.76 18.4 26.72 18.4H29.8C35.12 18.4 38.92 21.44 38.92 26.92ZM33.28 27.4C33.28 24.28 32 23.04 29.12 23.04H27.36C26.68 23.04 25.72 23.28 25.08 23.4V31.16C26.04 31.44 27.56 31.64 28.96 31.64C31.76 31.64 33.28 30.04 33.28 27.4Z" fill="url(#paint1_linear_1301_1191)"/>
<defs>
<linearGradient id="paint0_linear_1301_1191" x1="55" y1="10.4999" x2="-1.06963" y2="47.3568" gradientUnits="userSpaceOnUse">
<stop stop-color="#FFCC00"/>
<stop offset="1" stop-color="#ED6A01"/>
</linearGradient>
<linearGradient id="paint1_linear_1301_1191" x1="17" y1="58" x2="43.4984" y2="56.2594" gradientUnits="userSpaceOnUse">
<stop stop-color="#ED6A01"/>
<stop offset="1" stop-color="#FFCC00"/>
</linearGradient>
</defs>
</svg>
