<svg width="64" height="82" viewBox="0 0 64 82" fill="none" xmlns="http://www.w3.org/2000/svg">
<path fill-rule="evenodd" clip-rule="evenodd" d="M30.9997 46.9333C34.9603 46.9333 38.7587 45.36 41.5592 42.5595C44.3597 39.7589 45.9331 35.9606 45.9331 32C45.9331 28.0394 44.3597 24.2411 41.5592 21.4405C38.7587 18.64 34.9603 17.0667 30.9997 17.0667C27.0392 17.0667 23.2408 18.64 20.4403 21.4405C17.6397 24.2411 16.0664 28.0394 16.0664 32C16.0664 35.9606 17.6397 39.7589 20.4403 42.5595C23.2408 45.36 27.0392 46.9333 30.9997 46.9333ZM30.9997 22.6C32.6971 22.6 36.325 24.2743 37.5252 25.4745C38.7255 26.6747 40.3997 30.3026 40.3997 32C40.3997 33.6974 38.7255 37.3252 37.5252 38.5255C36.325 39.7257 32.6971 41.4 30.9997 41.4C29.3024 41.4 25.6745 39.7257 24.4743 38.5255C23.274 37.3252 21.5997 33.6974 21.5997 32C21.5997 30.3026 23.274 26.6747 24.4743 25.4745C25.6745 24.2743 29.3024 22.6 30.9997 22.6Z" fill="url(#paint0_linear_865_2641)"/>
<path fill-rule="evenodd" clip-rule="evenodd" d="M0 32.5248C0 50.6283 18.6965 81.0667 32 81.0667C45.3035 81.0667 64 50.6283 64 32.5248C64 14.5792 49.6896 0 32 0C14.3104 0 0 14.5792 0 32.5248ZM58.4667 32.5248C58.4667 46.5195 39.488 75.5333 32 75.5333C24.512 75.5333 5.53333 46.5195 5.53333 32.5248C5.53333 19.2555 19.0592 5.53333 32 5.53333C44.9408 5.53333 58.4667 19.2555 58.4667 32.5248Z" fill="url(#paint1_linear_865_2641)"/>
<defs>
<linearGradient id="paint0_linear_865_2641" x1="16.0664" y1="46.9333" x2="49.7923" y2="41.6359" gradientUnits="userSpaceOnUse">
<stop stop-color="#ED6A01"/>
<stop offset="1" stop-color="#FFCC00"/>
</linearGradient>
<linearGradient id="paint1_linear_865_2641" x1="0" y1="81.0667" x2="72.9312" y2="72.0228" gradientUnits="userSpaceOnUse">
<stop stop-color="#ED6A01"/>
<stop offset="1" stop-color="#FFCC00"/>
</linearGradient>
</defs>
</svg>
