<svg width="141" height="64" viewBox="0 0 141 64" fill="none" xmlns="http://www.w3.org/2000/svg">
<mask id="mask0_957_5888" style="mask-type:alpha" maskUnits="userSpaceOnUse" x="0" y="0" width="141" height="64">
<path d="M138.751 54.0093C139.856 54.0093 140.751 54.9047 140.751 56.0093V61.8291C140.751 62.9337 139.856 63.8291 138.751 63.8291H123.111C122.007 63.8291 121.111 62.9337 121.111 61.8291V56.0093C121.111 54.9047 122.007 54.0093 123.111 54.0093H138.751Z" fill="black"/>
<path d="M108.362 5.72827C109.467 5.72827 110.362 6.6237 110.362 7.72827V15.5645H113.414C114.518 15.5645 115.414 16.4599 115.414 17.5645V23.4477C115.414 24.5523 114.518 25.4477 113.414 25.4477H110.362V46.1803C110.362 50.2905 110.563 52.5809 110.965 53.0515C111.292 53.4076 112.371 53.629 114.202 53.7157C115.305 53.7679 116.202 54.6529 116.202 55.7575V61.829C116.202 62.9336 115.306 63.829 114.202 63.829H108.648C104.384 63.829 101.34 63.6564 99.5176 63.3113C97.6947 62.9348 96.088 62.1034 94.6977 60.817C93.3073 59.4992 92.4422 58.0089 92.1024 56.346C91.7625 54.6517 91.5926 50.6984 91.5926 44.486V25.4477H89.5605C88.456 25.4477 87.5605 24.5523 87.5605 23.4477V17.5645C87.5605 16.4599 88.456 15.5645 89.5605 15.5645H91.5926V7.72827C91.5926 6.6237 92.488 5.72827 93.5926 5.72827H108.362Z" fill="black"/>
<path d="M80.6504 0C81.755 0 82.6504 0.895431 82.6504 2V7.97973C82.6504 9.0843 81.755 9.97974 80.6504 9.97974H65.0107C63.9062 9.97974 63.0107 9.0843 63.0107 7.97974V2C63.0107 0.895431 63.9062 0 65.0107 0H80.6504ZM80.6504 13.8108C81.755 13.8108 82.6504 14.7062 82.6504 15.8108V61.829C82.6504 62.9336 81.755 63.829 80.6504 63.829H65.0107C63.9062 63.829 63.0107 62.9336 63.0107 61.829V15.8108C63.0107 14.7062 63.9062 13.8108 65.0107 13.8108H80.6504Z" fill="black"/>
<path d="M28.8512 1.96755C32.0002 4.76928 33.76 9.81704 32.4402 14.1702C31.5835 17.6665 29.1754 21.2092 27.925 24.0341C27.1609 25.7939 26.9525 27.1832 27.1609 28.2946C27.8324 31.3047 30.0784 32.1615 33.0654 33.736C34.8946 34.6159 36.9785 35.5189 39.1319 36.5377C46.912 39.9878 53.2564 45.0819 57.9568 51.4726C57.9568 45.9618 57.7021 42.5812 57.239 41.3539C56.7528 40.1036 55.5487 38.7143 53.6037 37.2092C51.6587 35.7042 47.8382 34.5001 42.1652 33.5971C48.4402 33.2266 52.6312 32.092 54.7615 30.2165C56.8917 28.3409 57.9568 24.6593 57.9568 19.1716C57.9568 13.1745 56.4518 8.79823 53.4185 6.06595C50.4083 3.33368 46.4952 1.62022 41.7021 0.948732C38.5299 0.50879 33.4358 0.207777 26.4199 0.0688477C27.2535 0.624564 28.0639 1.24975 28.8512 1.94439V1.96755Z" fill="black"/>
<path d="M32.903 47.6527C26.0724 43.2533 17.1114 38.3907 17.4819 28.5731C17.4356 23.0622 21.5572 18.1534 24.4515 14.3328C26.6049 11.5311 27.3227 8.45152 25.0767 5.32561C23.479 3.14906 21.3951 1.45876 19.0796 0C17.5282 0 15.9074 0 14.2171 0H1.71346C0.76411 0 0 0.76411 0 1.71346V62.2865C0 63.2359 0.76411 64 1.71346 64H20.8857C21.835 64 22.5991 63.2359 22.5991 62.2865V49.2967C26.5586 49.2967 28.9899 49.7366 29.9161 50.6396C30.8423 51.5427 31.3054 53.8813 31.3054 57.6324V62.2865C31.3054 63.2359 32.0695 64 33.0188 64H46.9349C44.2721 56.9378 39.5253 51.9132 32.8799 47.6527H32.903Z" fill="black"/>
</mask>
<g mask="url(#mask0_957_5888)">
<rect width="140.751" height="63.829" fill="#F5F5F5"/>
</g>
</svg>
