<svg width="43" height="64" viewBox="0 0 43 64" fill="none" xmlns="http://www.w3.org/2000/svg">
<path d="M37.6359 0H4.56192C2.04574 0 0 2.05 0 4.57143V59.4286C0 61.95 2.04574 64 4.56192 64H37.6359C40.1521 64 42.1978 61.95 42.1978 59.4286V4.57143C42.1978 2.05 40.1521 0 37.6359 0ZM37.0656 58.8571H5.13217V5.14286H37.0656V58.8571ZM18.2477 51.5714C18.2477 52.3292 18.5481 53.0559 19.0828 53.5917C19.6175 54.1276 20.3427 54.4286 21.0989 54.4286C21.8551 54.4286 22.5803 54.1276 23.115 53.5917C23.6497 53.0559 23.9501 52.3292 23.9501 51.5714C23.9501 50.8137 23.6497 50.0869 23.115 49.5511C22.5803 49.0153 21.8551 48.7143 21.0989 48.7143C20.3427 48.7143 19.6175 49.0153 19.0828 49.5511C18.5481 50.0869 18.2477 50.8137 18.2477 51.5714Z" fill="url(#paint0_linear_843_2563)"/>
<defs>
<linearGradient id="paint0_linear_843_2563" x1="0" y1="64" x2="48.3078" y2="58.997" gradientUnits="userSpaceOnUse">
<stop stop-color="#ED6A01"/>
<stop offset="1" stop-color="#FFCC00"/>
</linearGradient>
</defs>
</svg>
